<svg xmlns="http://www.w3.org/2000/svg" width="111.791" height="111.79" viewBox="0 0 111.791 111.79">
  <g id="Grupo_1204386" data-name="Grupo 1204386" transform="translate(-222.104 -11502.333)">
    <g id="Grupo_1098580" data-name="Grupo 1098580" transform="translate(-196.896 10381.333)">
      <path id="Trazado_824488" data-name="Trazado 824488" d="M55.9,0A55.9,55.9,0,1,1,0,55.9,55.9,55.9,0,0,1,55.9,0Z" transform="translate(419 1121)" fill="#aaca79"/>
      <path id="Trazado_1261791" data-name="Trazado 1261791" d="M188.651,188.3V146.8a4.7,4.7,0,0,0-4.694-4.694H128.145a4.7,4.7,0,0,0-4.694,4.694V188.3ZM118.5,194.455h75.1v1.574a8.308,8.308,0,0,1-8.283,8.283H126.783a8.308,8.308,0,0,1-8.283-8.283Zm47.983-27.223-7.7,4.446-7.7,4.446a2.567,2.567,0,0,1-3.851-2.223V156.116a2.567,2.567,0,0,1,3.851-2.223l7.7,4.446,7.7,4.446a2.568,2.568,0,0,1,0,4.447Z" transform="translate(318.845 1003.687)" fill="#3a4852" fill-rule="evenodd"/>
    </g>
  </g>
</svg>
