<svg xmlns="http://www.w3.org/2000/svg" xmlns:xlink="http://www.w3.org/1999/xlink" width="502" height="296.426" viewBox="0 0 502 296.426">
  <defs>
    <clipPath id="clip-path">
      <path id="Unión_4" data-name="Unión 4" d="M128.744,296H25.413V237.072a139.784,139.784,0,0,1,0-160.735V0h174l-5.2,28.008a139.744,139.744,0,0,1-54.489,268.416Q134.182,296.425,128.744,296Z" transform="translate(-5980.414 -9017)" fill="#a6cdec"/>
    </clipPath>
  </defs>
  <g id="Grupo_1204391" data-name="Grupo 1204391" transform="translate(-894.006 -9543.791)">
    <g id="Grupo_1102809" data-name="Grupo 1102809" transform="translate(-6018.994 11444.435)">
      <g id="Grupo_1102802" data-name="Grupo 1102802" transform="translate(6020.999 -7599.862)">
        <g id="Grupo_1101303" data-name="Grupo 1101303" transform="translate(13641.005 18325.219)">
          <path id="Trazado_145968" data-name="Trazado 145968" d="M61.939,0a61.939,61.939,0,1,0,61.939,61.939A61.939,61.939,0,0,0,61.939,0Z" transform="translate(-12688.868 -12458.757)" fill="#aaca79"/>
          <path id="Trazado_145969" data-name="Trazado 145969" d="M42.323,0A42.323,42.323,0,1,0,84.647,42.323,42.323,42.323,0,0,0,42.323,0Z" transform="translate(-12446.252 -12592.855)" fill="#aaca79"/>
          <rect id="Rectángulo_34812" data-name="Rectángulo 34812" width="371.387" height="278.54" transform="translate(-12698.387 -12608.565)" fill="none"/>
          <path id="Trazado_145967" data-name="Trazado 145967" d="M139.721,0A139.72,139.72,0,1,0,279.441,139.72,139.721,139.721,0,0,0,139.721,0Z" transform="translate(-12652.414 -12609.016)" fill="#84a4bc"/>
          <path id="Trazado_145971" data-name="Trazado 145971" d="M11.637,0A11.637,11.637,0,1,0,23.273,11.637,11.637,11.637,0,0,0,11.637,0Z" transform="translate(-12396.246 -12376.358)" fill="#0a4666"/>
        </g>
      </g>
      <g id="Grupo_1102808" data-name="Grupo 1102808" transform="translate(55 -65)">
        <g id="Grupo_1102804" data-name="Grupo 1102804" transform="translate(78 -127)">
          <g id="Rectángulo_402988" data-name="Rectángulo 402988" transform="translate(6972 -1621)" fill="#fff" stroke="#a6cdec" stroke-width="1">
            <rect width="114" height="121" rx="9" stroke="none"/>
            <rect x="0.5" y="0.5" width="113" height="120" rx="8.5" fill="none"/>
          </g>
          <g id="Rectángulo_402989" data-name="Rectángulo 402989" transform="translate(6972 -1621)" fill="#0a4666" stroke="#a6cdec" stroke-width="1">
            <path d="M10,0h94a10,10,0,0,1,10,10V25a0,0,0,0,1,0,0H0a0,0,0,0,1,0,0V10A10,10,0,0,1,10,0Z" stroke="none"/>
            <path d="M10,.5h94a9.5,9.5,0,0,1,9.5,9.5V24.5a0,0,0,0,1,0,0H.5a0,0,0,0,1,0,0V10A9.5,9.5,0,0,1,10,.5Z" fill="none"/>
          </g>
        </g>
        <g id="Grupo_1102805" data-name="Grupo 1102805" transform="translate(274 -127)">
          <g id="Rectángulo_402988-2" data-name="Rectángulo 402988" transform="translate(6972 -1621)" fill="#fff" stroke="#a6cdec" stroke-width="1">
            <rect width="114" height="121" rx="9" stroke="none"/>
            <rect x="0.5" y="0.5" width="113" height="120" rx="8.5" fill="none"/>
          </g>
          <g id="Rectángulo_402989-2" data-name="Rectángulo 402989" transform="translate(6972 -1621)" fill="#0a4666" stroke="#a6cdec" stroke-width="1">
            <path d="M10,0h94a10,10,0,0,1,10,10V25a0,0,0,0,1,0,0H0a0,0,0,0,1,0,0V10A10,10,0,0,1,10,0Z" stroke="none"/>
            <path d="M10,.5h94a9.5,9.5,0,0,1,9.5,9.5V24.5a0,0,0,0,1,0,0H.5a0,0,0,0,1,0,0V10A9.5,9.5,0,0,1,10,.5Z" fill="none"/>
          </g>
        </g>
        <g id="Grupo_1102803" data-name="Grupo 1102803" transform="translate(-114 -146)">
          <g id="Rectángulo_402988-3" data-name="Rectángulo 402988" transform="translate(6972 -1621)" fill="#fff" stroke="#a6cdec" stroke-width="1">
            <rect width="110" height="178" rx="9" stroke="none"/>
            <rect x="0.5" y="0.5" width="109" height="177" rx="8.5" fill="none"/>
          </g>
          <g id="Rectángulo_402989-3" data-name="Rectángulo 402989" transform="translate(6972 -1621)" fill="#aaca79" stroke="#a6cdec" stroke-width="1">
            <path d="M10,0h90a10,10,0,0,1,10,10V25a0,0,0,0,1,0,0H0a0,0,0,0,1,0,0V10A10,10,0,0,1,10,0Z" stroke="none"/>
            <path d="M10,.5h90a9.5,9.5,0,0,1,9.5,9.5V24.5a0,0,0,0,1,0,0H.5a0,0,0,0,1,0,0V10A9.5,9.5,0,0,1,10,.5Z" fill="none"/>
          </g>
        </g>
        <g id="clave" transform="translate(6875.024 -1734.475) rotate(135)">
          <path id="Trazado_877272" data-name="Trazado 877272" d="M17.861,8.766a.331.331,0,0,0-.116-.255.268.268,0,0,0-.083-.049l-.025-.01a.387.387,0,0,0-.047-.011.3.3,0,0,0-.054,0h-.494l-1.115,0a.2.2,0,0,0-.114.065l-3.554,3.554a3.04,3.04,0,0,0-.4-.093,2.952,2.952,0,0,0-.729-.029,3,3,0,0,0-2.113,4.855c.069.085.139.165.213.24a3,3,0,0,0,5.008-2.992l.353-.353a.1.1,0,0,0,.029-.08l-.08-.87a.1.1,0,0,1,.023-.072.1.1,0,0,1,.087-.038l.393.036.4.038a.1.1,0,0,0,.11-.11l-.074-.8a.1.1,0,0,1,.023-.072.1.1,0,0,1,.087-.038l.393.036.4.038a.1.1,0,0,0,.11-.11l-.072-.8a.1.1,0,0,1,.023-.072.1.1,0,0,1,.085-.036l.469.043.406.036a.1.1,0,0,0,.078-.029l.33-.34a.166.166,0,0,0,.046-.114Zm-6.773,7.57a.8.8,0,0,1-1.132,0,.086.086,0,0,1-.016-.02.346.346,0,0,1-.051-.059l0,0a.38.38,0,0,1-.043-.062.392.392,0,0,1-.038-.067.648.648,0,0,1-.034-.077.39.39,0,0,1-.02-.062A.8.8,0,0,1,10.74,15a.385.385,0,0,1,.062.02.643.643,0,0,1,.077.034.392.392,0,0,1,.067.038.381.381,0,0,1,.062.043l0,0a.347.347,0,0,1,.059.051.086.086,0,0,1,.02.016.8.8,0,0,1,0,1.132Zm0,0" transform="translate(-8.205 -8.231)" fill="#fec108"/>
          <path id="Trazado_877273" data-name="Trazado 877273" d="M17.37,8.766a.331.331,0,0,0-.116-.255.267.267,0,0,0-.083-.049l-.025-.01A.388.388,0,0,0,17.1,8.44a.3.3,0,0,0-.054,0h0l-1.115,0a.2.2,0,0,0-.114.065l-3.554,3.554a3.04,3.04,0,0,0-.4-.093l-.093.093a3.019,3.019,0,0,0-.636-.123,3,3,0,0,0-2.113,4.855c.069.085.139.165.213.24a2.987,2.987,0,0,0,1.9.885,3,3,0,0,0,2.615-3.876l.353-.353a.1.1,0,0,0,.029-.08l-.08-.87a.1.1,0,0,1,.11-.11l.4.038.393.036a.1.1,0,0,0,.11-.11l-.074-.8a.1.1,0,0,1,.11-.11l.4.038.393.036a.1.1,0,0,0,.11-.11l-.072-.8a.1.1,0,0,1,.108-.108l.406.036.469.042A.1.1,0,0,0,17,10.784L17,10.777l.324-.334a.166.166,0,0,0,.046-.114Zm-6.282,7.57a.8.8,0,0,1-.811.195c-.276.09-.044.025-.263-.195a.086.086,0,0,1-.016-.02.347.347,0,0,1-.051-.059l0,0a.38.38,0,0,1-.043-.062.392.392,0,0,1-.038-.067.648.648,0,0,1-.034-.077.39.39,0,0,1-.02-.062.8.8,0,0,1,.2-.784c.213-.213-.034-.28.236-.2l.026.008A.789.789,0,0,1,10.739,15a.385.385,0,0,1,.062.02.643.643,0,0,1,.077.034.392.392,0,0,1,.067.038.381.381,0,0,1,.062.043l0,0a.346.346,0,0,1,.059.051.086.086,0,0,1,.02.016.8.8,0,0,1,0,1.132Zm0,0" transform="translate(-8.205 -8.231)" fill="#ffdc00"/>
          <path id="Trazado_877274" data-name="Trazado 877274" d="M3.164,9.854c-.059,0-.117,0-.176,0A3.165,3.165,0,1,1,4.005,3.637L7.49.152A.368.368,0,0,1,7.7.04c.007,0,.017,0,.02,0H9.328a.5.5,0,0,1,.349.144A.487.487,0,0,1,9.82.535l0,1.563a.327.327,0,0,1-.092.228h0l-.331.34a.261.261,0,0,1-.21.078l-.8-.072.065.724a.264.264,0,0,1-.286.286l-.722-.066.066.722a.264.264,0,0,1-.287.286L6.505,4.56l.073.795a.263.263,0,0,1-.076.21l-.285.285a3.165,3.165,0,0,1-3.053,4Zm0-6a2.839,2.839,0,1,0,2.717,2,.163.163,0,0,1,.041-.164l.332-.332-.077-.841a.264.264,0,0,1,.286-.287l.722.066-.066-.722A.264.264,0,0,1,7.4,3.285l.722.066-.065-.724a.264.264,0,0,1,.286-.286l.842.076L9.5,2.1h0l0-1.564A.164.164,0,0,0,9.329.367H7.742L7.721.384,4.168,3.937A.164.164,0,0,1,4,3.978,2.872,2.872,0,0,0,3.16,3.85Zm0,0" transform="translate(0)"/>
          <path id="Trazado_877275" data-name="Trazado 877275" d="M70.429,337.359a.963.963,0,1,1,.682-.282A.963.963,0,0,1,70.429,337.359Zm0-1.6a.637.637,0,1,0,.45.186A.636.636,0,0,0,70.429,335.759Zm0,0" transform="translate(-68.112 -328.857)"/>
          <path id="Trazado_877276" data-name="Trazado 877276" d="M234.082,81.592a.164.164,0,0,1-.116-.279l2.547-2.547a.164.164,0,1,1,.231.231L234.2,81.544A.163.163,0,0,1,234.082,81.592Zm0,0" transform="translate(-229.361 -77.144)"/>
          <path id="Trazado_877277" data-name="Trazado 877277" d="M386.9,58.613a.164.164,0,1,0-.164.164A.164.164,0,0,0,386.9,58.613Zm0,0" transform="translate(-379.037 -57.272)"/>
        </g>
        <g id="clave-2" data-name="clave" transform="translate(7267.027 -1714.032) rotate(135)">
          <path id="Trazado_877272-2" data-name="Trazado 877272" d="M17.861,8.766a.331.331,0,0,0-.116-.255.268.268,0,0,0-.083-.049l-.025-.01a.387.387,0,0,0-.047-.011.3.3,0,0,0-.054,0h-.494l-1.115,0a.2.2,0,0,0-.114.065l-3.554,3.554a3.04,3.04,0,0,0-.4-.093,2.952,2.952,0,0,0-.729-.029,3,3,0,0,0-2.113,4.855c.069.085.139.165.213.24a3,3,0,0,0,5.008-2.992l.353-.353a.1.1,0,0,0,.029-.08l-.08-.87a.1.1,0,0,1,.023-.072.1.1,0,0,1,.087-.038l.393.036.4.038a.1.1,0,0,0,.11-.11l-.074-.8a.1.1,0,0,1,.023-.072.1.1,0,0,1,.087-.038l.393.036.4.038a.1.1,0,0,0,.11-.11l-.072-.8a.1.1,0,0,1,.023-.072.1.1,0,0,1,.085-.036l.469.043.406.036a.1.1,0,0,0,.078-.029l.33-.34a.166.166,0,0,0,.046-.114Zm-6.773,7.57a.8.8,0,0,1-1.132,0,.086.086,0,0,1-.016-.02.346.346,0,0,1-.051-.059l0,0a.38.38,0,0,1-.043-.062.392.392,0,0,1-.038-.067.648.648,0,0,1-.034-.077.39.39,0,0,1-.02-.062A.8.8,0,0,1,10.74,15a.385.385,0,0,1,.062.02.643.643,0,0,1,.077.034.392.392,0,0,1,.067.038.381.381,0,0,1,.062.043l0,0a.347.347,0,0,1,.059.051.086.086,0,0,1,.02.016.8.8,0,0,1,0,1.132Zm0,0" transform="translate(-8.205 -8.231)" fill="#fec108"/>
          <path id="Trazado_877273-2" data-name="Trazado 877273" d="M17.37,8.766a.331.331,0,0,0-.116-.255.267.267,0,0,0-.083-.049l-.025-.01A.388.388,0,0,0,17.1,8.44a.3.3,0,0,0-.054,0h0l-1.115,0a.2.2,0,0,0-.114.065l-3.554,3.554a3.04,3.04,0,0,0-.4-.093l-.093.093a3.019,3.019,0,0,0-.636-.123,3,3,0,0,0-2.113,4.855c.069.085.139.165.213.24a2.987,2.987,0,0,0,1.9.885,3,3,0,0,0,2.615-3.876l.353-.353a.1.1,0,0,0,.029-.08l-.08-.87a.1.1,0,0,1,.11-.11l.4.038.393.036a.1.1,0,0,0,.11-.11l-.074-.8a.1.1,0,0,1,.11-.11l.4.038.393.036a.1.1,0,0,0,.11-.11l-.072-.8a.1.1,0,0,1,.108-.108l.406.036.469.042A.1.1,0,0,0,17,10.784L17,10.777l.324-.334a.166.166,0,0,0,.046-.114Zm-6.282,7.57a.8.8,0,0,1-.811.195c-.276.09-.044.025-.263-.195a.086.086,0,0,1-.016-.02.347.347,0,0,1-.051-.059l0,0a.38.38,0,0,1-.043-.062.392.392,0,0,1-.038-.067.648.648,0,0,1-.034-.077.39.39,0,0,1-.02-.062.8.8,0,0,1,.2-.784c.213-.213-.034-.28.236-.2l.026.008A.789.789,0,0,1,10.739,15a.385.385,0,0,1,.062.02.643.643,0,0,1,.077.034.392.392,0,0,1,.067.038.381.381,0,0,1,.062.043l0,0a.346.346,0,0,1,.059.051.086.086,0,0,1,.02.016.8.8,0,0,1,0,1.132Zm0,0" transform="translate(-8.205 -8.231)" fill="#ffdc00"/>
          <path id="Trazado_877274-2" data-name="Trazado 877274" d="M3.164,9.854c-.059,0-.117,0-.176,0A3.165,3.165,0,1,1,4.005,3.637L7.49.152A.368.368,0,0,1,7.7.04c.007,0,.017,0,.02,0H9.328a.5.5,0,0,1,.349.144A.487.487,0,0,1,9.82.535l0,1.563a.327.327,0,0,1-.092.228h0l-.331.34a.261.261,0,0,1-.21.078l-.8-.072.065.724a.264.264,0,0,1-.286.286l-.722-.066.066.722a.264.264,0,0,1-.287.286L6.505,4.56l.073.795a.263.263,0,0,1-.076.21l-.285.285a3.165,3.165,0,0,1-3.053,4Zm0-6a2.839,2.839,0,1,0,2.717,2,.163.163,0,0,1,.041-.164l.332-.332-.077-.841a.264.264,0,0,1,.286-.287l.722.066-.066-.722A.264.264,0,0,1,7.4,3.285l.722.066-.065-.724a.264.264,0,0,1,.286-.286l.842.076L9.5,2.1h0l0-1.564A.164.164,0,0,0,9.329.367H7.742L7.721.384,4.168,3.937A.164.164,0,0,1,4,3.978,2.872,2.872,0,0,0,3.16,3.85Zm0,0" transform="translate(0)"/>
          <path id="Trazado_877275-2" data-name="Trazado 877275" d="M70.429,337.359a.963.963,0,1,1,.682-.282A.963.963,0,0,1,70.429,337.359Zm0-1.6a.637.637,0,1,0,.45.186A.636.636,0,0,0,70.429,335.759Zm0,0" transform="translate(-68.112 -328.857)"/>
          <path id="Trazado_877276-2" data-name="Trazado 877276" d="M234.082,81.592a.164.164,0,0,1-.116-.279l2.547-2.547a.164.164,0,1,1,.231.231L234.2,81.544A.163.163,0,0,1,234.082,81.592Zm0,0" transform="translate(-229.361 -77.144)"/>
          <path id="Trazado_877277-2" data-name="Trazado 877277" d="M386.9,58.613a.164.164,0,1,0-.164.164A.164.164,0,0,0,386.9,58.613Zm0,0" transform="translate(-379.037 -57.272)"/>
        </g>
        <g id="clave-3" data-name="clave" transform="translate(7068.027 -1714.032) rotate(135)">
          <path id="Trazado_877272-3" data-name="Trazado 877272" d="M17.861,8.766a.331.331,0,0,0-.116-.255.268.268,0,0,0-.083-.049l-.025-.01a.387.387,0,0,0-.047-.011.3.3,0,0,0-.054,0h-.494l-1.115,0a.2.2,0,0,0-.114.065l-3.554,3.554a3.04,3.04,0,0,0-.4-.093,2.952,2.952,0,0,0-.729-.029,3,3,0,0,0-2.113,4.855c.069.085.139.165.213.24a3,3,0,0,0,5.008-2.992l.353-.353a.1.1,0,0,0,.029-.08l-.08-.87a.1.1,0,0,1,.023-.072.1.1,0,0,1,.087-.038l.393.036.4.038a.1.1,0,0,0,.11-.11l-.074-.8a.1.1,0,0,1,.023-.072.1.1,0,0,1,.087-.038l.393.036.4.038a.1.1,0,0,0,.11-.11l-.072-.8a.1.1,0,0,1,.023-.072.1.1,0,0,1,.085-.036l.469.043.406.036a.1.1,0,0,0,.078-.029l.33-.34a.166.166,0,0,0,.046-.114Zm-6.773,7.57a.8.8,0,0,1-1.132,0,.086.086,0,0,1-.016-.02.346.346,0,0,1-.051-.059l0,0a.38.38,0,0,1-.043-.062.392.392,0,0,1-.038-.067.648.648,0,0,1-.034-.077.39.39,0,0,1-.02-.062A.8.8,0,0,1,10.74,15a.385.385,0,0,1,.062.02.643.643,0,0,1,.077.034.392.392,0,0,1,.067.038.381.381,0,0,1,.062.043l0,0a.347.347,0,0,1,.059.051.086.086,0,0,1,.02.016.8.8,0,0,1,0,1.132Zm0,0" transform="translate(-8.205 -8.231)" fill="#fec108"/>
          <path id="Trazado_877273-3" data-name="Trazado 877273" d="M17.37,8.766a.331.331,0,0,0-.116-.255.267.267,0,0,0-.083-.049l-.025-.01A.388.388,0,0,0,17.1,8.44a.3.3,0,0,0-.054,0h0l-1.115,0a.2.2,0,0,0-.114.065l-3.554,3.554a3.04,3.04,0,0,0-.4-.093l-.093.093a3.019,3.019,0,0,0-.636-.123,3,3,0,0,0-2.113,4.855c.069.085.139.165.213.24a2.987,2.987,0,0,0,1.9.885,3,3,0,0,0,2.615-3.876l.353-.353a.1.1,0,0,0,.029-.08l-.08-.87a.1.1,0,0,1,.11-.11l.4.038.393.036a.1.1,0,0,0,.11-.11l-.074-.8a.1.1,0,0,1,.11-.11l.4.038.393.036a.1.1,0,0,0,.11-.11l-.072-.8a.1.1,0,0,1,.108-.108l.406.036.469.042A.1.1,0,0,0,17,10.784L17,10.777l.324-.334a.166.166,0,0,0,.046-.114Zm-6.282,7.57a.8.8,0,0,1-.811.195c-.276.09-.044.025-.263-.195a.086.086,0,0,1-.016-.02.347.347,0,0,1-.051-.059l0,0a.38.38,0,0,1-.043-.062.392.392,0,0,1-.038-.067.648.648,0,0,1-.034-.077.39.39,0,0,1-.02-.062.8.8,0,0,1,.2-.784c.213-.213-.034-.28.236-.2l.026.008A.789.789,0,0,1,10.739,15a.385.385,0,0,1,.062.02.643.643,0,0,1,.077.034.392.392,0,0,1,.067.038.381.381,0,0,1,.062.043l0,0a.346.346,0,0,1,.059.051.086.086,0,0,1,.02.016.8.8,0,0,1,0,1.132Zm0,0" transform="translate(-8.205 -8.231)" fill="#ffdc00"/>
          <path id="Trazado_877274-3" data-name="Trazado 877274" d="M3.164,9.854c-.059,0-.117,0-.176,0A3.165,3.165,0,1,1,4.005,3.637L7.49.152A.368.368,0,0,1,7.7.04c.007,0,.017,0,.02,0H9.328a.5.5,0,0,1,.349.144A.487.487,0,0,1,9.82.535l0,1.563a.327.327,0,0,1-.092.228h0l-.331.34a.261.261,0,0,1-.21.078l-.8-.072.065.724a.264.264,0,0,1-.286.286l-.722-.066.066.722a.264.264,0,0,1-.287.286L6.505,4.56l.073.795a.263.263,0,0,1-.076.21l-.285.285a3.165,3.165,0,0,1-3.053,4Zm0-6a2.839,2.839,0,1,0,2.717,2,.163.163,0,0,1,.041-.164l.332-.332-.077-.841a.264.264,0,0,1,.286-.287l.722.066-.066-.722A.264.264,0,0,1,7.4,3.285l.722.066-.065-.724a.264.264,0,0,1,.286-.286l.842.076L9.5,2.1h0l0-1.564A.164.164,0,0,0,9.329.367H7.742L7.721.384,4.168,3.937A.164.164,0,0,1,4,3.978,2.872,2.872,0,0,0,3.16,3.85Zm0,0" transform="translate(0)"/>
          <path id="Trazado_877275-3" data-name="Trazado 877275" d="M70.429,337.359a.963.963,0,1,1,.682-.282A.963.963,0,0,1,70.429,337.359Zm0-1.6a.637.637,0,1,0,.45.186A.636.636,0,0,0,70.429,335.759Zm0,0" transform="translate(-68.112 -328.857)"/>
          <path id="Trazado_877276-3" data-name="Trazado 877276" d="M234.082,81.592a.164.164,0,0,1-.116-.279l2.547-2.547a.164.164,0,1,1,.231.231L234.2,81.544A.163.163,0,0,1,234.082,81.592Zm0,0" transform="translate(-229.361 -77.144)"/>
          <path id="Trazado_877277-3" data-name="Trazado 877277" d="M386.9,58.613a.164.164,0,1,0-.164.164A.164.164,0,0,0,386.9,58.613Zm0,0" transform="translate(-379.037 -57.272)"/>
        </g>
        <g id="clave-4" data-name="clave" transform="translate(7268.971 -1642.918) rotate(135)">
          <path id="Trazado_877272-4" data-name="Trazado 877272" d="M17.861,8.766a.331.331,0,0,0-.116-.255.268.268,0,0,0-.083-.049l-.025-.01a.387.387,0,0,0-.047-.011.3.3,0,0,0-.054,0h-.494l-1.115,0a.2.2,0,0,0-.114.065l-3.554,3.554a3.04,3.04,0,0,0-.4-.093,2.952,2.952,0,0,0-.729-.029,3,3,0,0,0-2.113,4.855c.069.085.139.165.213.24a3,3,0,0,0,5.008-2.992l.353-.353a.1.1,0,0,0,.029-.08l-.08-.87a.1.1,0,0,1,.023-.072.1.1,0,0,1,.087-.038l.393.036.4.038a.1.1,0,0,0,.11-.11l-.074-.8a.1.1,0,0,1,.023-.072.1.1,0,0,1,.087-.038l.393.036.4.038a.1.1,0,0,0,.11-.11l-.072-.8a.1.1,0,0,1,.023-.072.1.1,0,0,1,.085-.036l.469.043.406.036a.1.1,0,0,0,.078-.029l.33-.34a.166.166,0,0,0,.046-.114Zm-6.773,7.57a.8.8,0,0,1-1.132,0,.086.086,0,0,1-.016-.02.346.346,0,0,1-.051-.059l0,0a.38.38,0,0,1-.043-.062.392.392,0,0,1-.038-.067.648.648,0,0,1-.034-.077.39.39,0,0,1-.02-.062A.8.8,0,0,1,10.74,15a.385.385,0,0,1,.062.02.643.643,0,0,1,.077.034.392.392,0,0,1,.067.038.381.381,0,0,1,.062.043l0,0a.347.347,0,0,1,.059.051.086.086,0,0,1,.02.016.8.8,0,0,1,0,1.132Zm0,0" transform="translate(-8.205 -8.231)" fill="#fec108"/>
          <path id="Trazado_877273-4" data-name="Trazado 877273" d="M17.37,8.766a.331.331,0,0,0-.116-.255.267.267,0,0,0-.083-.049l-.025-.01A.388.388,0,0,0,17.1,8.44a.3.3,0,0,0-.054,0h0l-1.115,0a.2.2,0,0,0-.114.065l-3.554,3.554a3.04,3.04,0,0,0-.4-.093l-.093.093a3.019,3.019,0,0,0-.636-.123,3,3,0,0,0-2.113,4.855c.069.085.139.165.213.24a2.987,2.987,0,0,0,1.9.885,3,3,0,0,0,2.615-3.876l.353-.353a.1.1,0,0,0,.029-.08l-.08-.87a.1.1,0,0,1,.11-.11l.4.038.393.036a.1.1,0,0,0,.11-.11l-.074-.8a.1.1,0,0,1,.11-.11l.4.038.393.036a.1.1,0,0,0,.11-.11l-.072-.8a.1.1,0,0,1,.108-.108l.406.036.469.042A.1.1,0,0,0,17,10.784L17,10.777l.324-.334a.166.166,0,0,0,.046-.114Zm-6.282,7.57a.8.8,0,0,1-.811.195c-.276.09-.044.025-.263-.195a.086.086,0,0,1-.016-.02.347.347,0,0,1-.051-.059l0,0a.38.38,0,0,1-.043-.062.392.392,0,0,1-.038-.067.648.648,0,0,1-.034-.077.39.39,0,0,1-.02-.062.8.8,0,0,1,.2-.784c.213-.213-.034-.28.236-.2l.026.008A.789.789,0,0,1,10.739,15a.385.385,0,0,1,.062.02.643.643,0,0,1,.077.034.392.392,0,0,1,.067.038.381.381,0,0,1,.062.043l0,0a.346.346,0,0,1,.059.051.086.086,0,0,1,.02.016.8.8,0,0,1,0,1.132Zm0,0" transform="translate(-8.205 -8.231)" fill="#dbdbdb"/>
          <path id="Trazado_877274-4" data-name="Trazado 877274" d="M3.164,9.854c-.059,0-.117,0-.176,0A3.165,3.165,0,1,1,4.005,3.637L7.49.152A.368.368,0,0,1,7.7.04c.007,0,.017,0,.02,0H9.328a.5.5,0,0,1,.349.144A.487.487,0,0,1,9.82.535l0,1.563a.327.327,0,0,1-.092.228h0l-.331.34a.261.261,0,0,1-.21.078l-.8-.072.065.724a.264.264,0,0,1-.286.286l-.722-.066.066.722a.264.264,0,0,1-.287.286L6.505,4.56l.073.795a.263.263,0,0,1-.076.21l-.285.285a3.165,3.165,0,0,1-3.053,4Zm0-6a2.839,2.839,0,1,0,2.717,2,.163.163,0,0,1,.041-.164l.332-.332-.077-.841a.264.264,0,0,1,.286-.287l.722.066-.066-.722A.264.264,0,0,1,7.4,3.285l.722.066-.065-.724a.264.264,0,0,1,.286-.286l.842.076L9.5,2.1h0l0-1.564A.164.164,0,0,0,9.329.367H7.742L7.721.384,4.168,3.937A.164.164,0,0,1,4,3.978,2.872,2.872,0,0,0,3.16,3.85Zm0,0" transform="translate(0)"/>
          <path id="Trazado_877275-4" data-name="Trazado 877275" d="M70.429,337.359a.963.963,0,1,1,.682-.282A.963.963,0,0,1,70.429,337.359Zm0-1.6a.637.637,0,1,0,.45.186A.636.636,0,0,0,70.429,335.759Zm0,0" transform="translate(-68.112 -328.857)"/>
          <path id="Trazado_877276-4" data-name="Trazado 877276" d="M234.082,81.592a.164.164,0,0,1-.116-.279l2.547-2.547a.164.164,0,1,1,.231.231L234.2,81.544A.163.163,0,0,1,234.082,81.592Zm0,0" transform="translate(-229.361 -77.144)"/>
          <path id="Trazado_877277-4" data-name="Trazado 877277" d="M386.9,58.613a.164.164,0,1,0-.164.164A.164.164,0,0,0,386.9,58.613Zm0,0" transform="translate(-379.037 -57.272)"/>
        </g>
        <g id="clave-5" data-name="clave" transform="translate(7068.027 -1696.918) rotate(135)">
          <path id="Trazado_877272-5" data-name="Trazado 877272" d="M17.861,8.766a.331.331,0,0,0-.116-.255.268.268,0,0,0-.083-.049l-.025-.01a.387.387,0,0,0-.047-.011.3.3,0,0,0-.054,0h-.494l-1.115,0a.2.2,0,0,0-.114.065l-3.554,3.554a3.04,3.04,0,0,0-.4-.093,2.952,2.952,0,0,0-.729-.029,3,3,0,0,0-2.113,4.855c.069.085.139.165.213.24a3,3,0,0,0,5.008-2.992l.353-.353a.1.1,0,0,0,.029-.08l-.08-.87a.1.1,0,0,1,.023-.072.1.1,0,0,1,.087-.038l.393.036.4.038a.1.1,0,0,0,.11-.11l-.074-.8a.1.1,0,0,1,.023-.072.1.1,0,0,1,.087-.038l.393.036.4.038a.1.1,0,0,0,.11-.11l-.072-.8a.1.1,0,0,1,.023-.072.1.1,0,0,1,.085-.036l.469.043.406.036a.1.1,0,0,0,.078-.029l.33-.34a.166.166,0,0,0,.046-.114Zm-6.773,7.57a.8.8,0,0,1-1.132,0,.086.086,0,0,1-.016-.02.346.346,0,0,1-.051-.059l0,0a.38.38,0,0,1-.043-.062.392.392,0,0,1-.038-.067.648.648,0,0,1-.034-.077.39.39,0,0,1-.02-.062A.8.8,0,0,1,10.74,15a.385.385,0,0,1,.062.02.643.643,0,0,1,.077.034.392.392,0,0,1,.067.038.381.381,0,0,1,.062.043l0,0a.347.347,0,0,1,.059.051.086.086,0,0,1,.02.016.8.8,0,0,1,0,1.132Zm0,0" transform="translate(-8.205 -8.231)" fill="#fec108"/>
          <path id="Trazado_877273-5" data-name="Trazado 877273" d="M17.37,8.766a.331.331,0,0,0-.116-.255.267.267,0,0,0-.083-.049l-.025-.01A.388.388,0,0,0,17.1,8.44a.3.3,0,0,0-.054,0h0l-1.115,0a.2.2,0,0,0-.114.065l-3.554,3.554a3.04,3.04,0,0,0-.4-.093l-.093.093a3.019,3.019,0,0,0-.636-.123,3,3,0,0,0-2.113,4.855c.069.085.139.165.213.24a2.987,2.987,0,0,0,1.9.885,3,3,0,0,0,2.615-3.876l.353-.353a.1.1,0,0,0,.029-.08l-.08-.87a.1.1,0,0,1,.11-.11l.4.038.393.036a.1.1,0,0,0,.11-.11l-.074-.8a.1.1,0,0,1,.11-.11l.4.038.393.036a.1.1,0,0,0,.11-.11l-.072-.8a.1.1,0,0,1,.108-.108l.406.036.469.042A.1.1,0,0,0,17,10.784L17,10.777l.324-.334a.166.166,0,0,0,.046-.114Zm-6.282,7.57a.8.8,0,0,1-.811.195c-.276.09-.044.025-.263-.195a.086.086,0,0,1-.016-.02.347.347,0,0,1-.051-.059l0,0a.38.38,0,0,1-.043-.062.392.392,0,0,1-.038-.067.648.648,0,0,1-.034-.077.39.39,0,0,1-.02-.062.8.8,0,0,1,.2-.784c.213-.213-.034-.28.236-.2l.026.008A.789.789,0,0,1,10.739,15a.385.385,0,0,1,.062.02.643.643,0,0,1,.077.034.392.392,0,0,1,.067.038.381.381,0,0,1,.062.043l0,0a.346.346,0,0,1,.059.051.086.086,0,0,1,.02.016.8.8,0,0,1,0,1.132Zm0,0" transform="translate(-8.205 -8.231)" fill="#dbdbdb"/>
          <path id="Trazado_877274-5" data-name="Trazado 877274" d="M3.164,9.854c-.059,0-.117,0-.176,0A3.165,3.165,0,1,1,4.005,3.637L7.49.152A.368.368,0,0,1,7.7.04c.007,0,.017,0,.02,0H9.328a.5.5,0,0,1,.349.144A.487.487,0,0,1,9.82.535l0,1.563a.327.327,0,0,1-.092.228h0l-.331.34a.261.261,0,0,1-.21.078l-.8-.072.065.724a.264.264,0,0,1-.286.286l-.722-.066.066.722a.264.264,0,0,1-.287.286L6.505,4.56l.073.795a.263.263,0,0,1-.076.21l-.285.285a3.165,3.165,0,0,1-3.053,4Zm0-6a2.839,2.839,0,1,0,2.717,2,.163.163,0,0,1,.041-.164l.332-.332-.077-.841a.264.264,0,0,1,.286-.287l.722.066-.066-.722A.264.264,0,0,1,7.4,3.285l.722.066-.065-.724a.264.264,0,0,1,.286-.286l.842.076L9.5,2.1h0l0-1.564A.164.164,0,0,0,9.329.367H7.742L7.721.384,4.168,3.937A.164.164,0,0,1,4,3.978,2.872,2.872,0,0,0,3.16,3.85Zm0,0" transform="translate(0)"/>
          <path id="Trazado_877275-5" data-name="Trazado 877275" d="M70.429,337.359a.963.963,0,1,1,.682-.282A.963.963,0,0,1,70.429,337.359Zm0-1.6a.637.637,0,1,0,.45.186A.636.636,0,0,0,70.429,335.759Zm0,0" transform="translate(-68.112 -328.857)"/>
          <path id="Trazado_877276-5" data-name="Trazado 877276" d="M234.082,81.592a.164.164,0,0,1-.116-.279l2.547-2.547a.164.164,0,1,1,.231.231L234.2,81.544A.163.163,0,0,1,234.082,81.592Zm0,0" transform="translate(-229.361 -77.144)"/>
          <path id="Trazado_877277-5" data-name="Trazado 877277" d="M386.9,58.613a.164.164,0,1,0-.164.164A.164.164,0,0,0,386.9,58.613Zm0,0" transform="translate(-379.037 -57.272)"/>
        </g>
        <g id="clave-6" data-name="clave" transform="translate(7068.027 -1661.532) rotate(135)">
          <path id="Trazado_877272-6" data-name="Trazado 877272" d="M17.861,8.766a.331.331,0,0,0-.116-.255.268.268,0,0,0-.083-.049l-.025-.01a.387.387,0,0,0-.047-.011.3.3,0,0,0-.054,0h-.494l-1.115,0a.2.2,0,0,0-.114.065l-3.554,3.554a3.04,3.04,0,0,0-.4-.093,2.952,2.952,0,0,0-.729-.029,3,3,0,0,0-2.113,4.855c.069.085.139.165.213.24a3,3,0,0,0,5.008-2.992l.353-.353a.1.1,0,0,0,.029-.08l-.08-.87a.1.1,0,0,1,.023-.072.1.1,0,0,1,.087-.038l.393.036.4.038a.1.1,0,0,0,.11-.11l-.074-.8a.1.1,0,0,1,.023-.072.1.1,0,0,1,.087-.038l.393.036.4.038a.1.1,0,0,0,.11-.11l-.072-.8a.1.1,0,0,1,.023-.072.1.1,0,0,1,.085-.036l.469.043.406.036a.1.1,0,0,0,.078-.029l.33-.34a.166.166,0,0,0,.046-.114Zm-6.773,7.57a.8.8,0,0,1-1.132,0,.086.086,0,0,1-.016-.02.346.346,0,0,1-.051-.059l0,0a.38.38,0,0,1-.043-.062.392.392,0,0,1-.038-.067.648.648,0,0,1-.034-.077.39.39,0,0,1-.02-.062A.8.8,0,0,1,10.74,15a.385.385,0,0,1,.062.02.643.643,0,0,1,.077.034.392.392,0,0,1,.067.038.381.381,0,0,1,.062.043l0,0a.347.347,0,0,1,.059.051.086.086,0,0,1,.02.016.8.8,0,0,1,0,1.132Zm0,0" transform="translate(-8.205 -8.231)" fill="#fec108"/>
          <path id="Trazado_877273-6" data-name="Trazado 877273" d="M17.37,8.766a.331.331,0,0,0-.116-.255.267.267,0,0,0-.083-.049l-.025-.01A.388.388,0,0,0,17.1,8.44a.3.3,0,0,0-.054,0h0l-1.115,0a.2.2,0,0,0-.114.065l-3.554,3.554a3.04,3.04,0,0,0-.4-.093l-.093.093a3.019,3.019,0,0,0-.636-.123,3,3,0,0,0-2.113,4.855c.069.085.139.165.213.24a2.987,2.987,0,0,0,1.9.885,3,3,0,0,0,2.615-3.876l.353-.353a.1.1,0,0,0,.029-.08l-.08-.87a.1.1,0,0,1,.11-.11l.4.038.393.036a.1.1,0,0,0,.11-.11l-.074-.8a.1.1,0,0,1,.11-.11l.4.038.393.036a.1.1,0,0,0,.11-.11l-.072-.8a.1.1,0,0,1,.108-.108l.406.036.469.042A.1.1,0,0,0,17,10.784L17,10.777l.324-.334a.166.166,0,0,0,.046-.114Zm-6.282,7.57a.8.8,0,0,1-.811.195c-.276.09-.044.025-.263-.195a.086.086,0,0,1-.016-.02.347.347,0,0,1-.051-.059l0,0a.38.38,0,0,1-.043-.062.392.392,0,0,1-.038-.067.648.648,0,0,1-.034-.077.39.39,0,0,1-.02-.062.8.8,0,0,1,.2-.784c.213-.213-.034-.28.236-.2l.026.008A.789.789,0,0,1,10.739,15a.385.385,0,0,1,.062.02.643.643,0,0,1,.077.034.392.392,0,0,1,.067.038.381.381,0,0,1,.062.043l0,0a.346.346,0,0,1,.059.051.086.086,0,0,1,.02.016.8.8,0,0,1,0,1.132Zm0,0" transform="translate(-8.205 -8.231)" fill="#dbdbdb"/>
          <path id="Trazado_877274-6" data-name="Trazado 877274" d="M3.164,9.854c-.059,0-.117,0-.176,0A3.165,3.165,0,1,1,4.005,3.637L7.49.152A.368.368,0,0,1,7.7.04c.007,0,.017,0,.02,0H9.328a.5.5,0,0,1,.349.144A.487.487,0,0,1,9.82.535l0,1.563a.327.327,0,0,1-.092.228h0l-.331.34a.261.261,0,0,1-.21.078l-.8-.072.065.724a.264.264,0,0,1-.286.286l-.722-.066.066.722a.264.264,0,0,1-.287.286L6.505,4.56l.073.795a.263.263,0,0,1-.076.21l-.285.285a3.165,3.165,0,0,1-3.053,4Zm0-6a2.839,2.839,0,1,0,2.717,2,.163.163,0,0,1,.041-.164l.332-.332-.077-.841a.264.264,0,0,1,.286-.287l.722.066-.066-.722A.264.264,0,0,1,7.4,3.285l.722.066-.065-.724a.264.264,0,0,1,.286-.286l.842.076L9.5,2.1h0l0-1.564A.164.164,0,0,0,9.329.367H7.742L7.721.384,4.168,3.937A.164.164,0,0,1,4,3.978,2.872,2.872,0,0,0,3.16,3.85Zm0,0" transform="translate(0)"/>
          <path id="Trazado_877275-6" data-name="Trazado 877275" d="M70.429,337.359a.963.963,0,1,1,.682-.282A.963.963,0,0,1,70.429,337.359Zm0-1.6a.637.637,0,1,0,.45.186A.636.636,0,0,0,70.429,335.759Zm0,0" transform="translate(-68.112 -328.857)"/>
          <path id="Trazado_877276-6" data-name="Trazado 877276" d="M234.082,81.592a.164.164,0,0,1-.116-.279l2.547-2.547a.164.164,0,1,1,.231.231L234.2,81.544A.163.163,0,0,1,234.082,81.592Zm0,0" transform="translate(-229.361 -77.144)"/>
          <path id="Trazado_877277-6" data-name="Trazado 877277" d="M386.9,58.613a.164.164,0,1,0-.164.164A.164.164,0,0,0,386.9,58.613Zm0,0" transform="translate(-379.037 -57.272)"/>
        </g>
        <text id="CLIENTE" transform="translate(6868 -1761)" fill="#12263f" font-size="10" font-family="Roboto-Bold, Roboto" font-weight="700"><tspan x="0" y="10">CLIENTE</tspan></text>
        <text id="id_cliente_PK_nombre_apellido_dirección_fecha_nacimiento_teléfono_email_categoría" data-name="id_cliente    PK
nombre
apellido
dirección
fecha_nacimiento
teléfono
email
categoría" transform="translate(6878 -1738)" fill="#12263f" font-size="10" font-family="Roboto-Bold, Roboto" font-weight="700"><tspan x="0" y="10" xml:space="preserve">id_cliente    PK</tspan><tspan font-family="Roboto-Regular, Roboto" font-weight="400"><tspan x="0" y="28">nombre</tspan><tspan x="0" y="46">apellido</tspan><tspan x="0" y="64">dirección</tspan><tspan x="0" y="82">fecha_nacimiento</tspan><tspan x="0" y="100">teléfono</tspan><tspan x="0" y="118">email</tspan><tspan x="0" y="136">categoría</tspan></tspan></text>
        <text id="num_factura_PK_id_cliente_FK_fecha_id_producto_FK" data-name="num_factura      PK
id_cliente    FK
fecha
id_producto???  FK" transform="translate(7068 -1721)" fill="#12263f" font-size="10" font-family="Roboto-Bold, Roboto" font-weight="700"><tspan x="0" y="10" xml:space="preserve">num_factura      PK</tspan><tspan font-family="Roboto-Regular, Roboto" font-weight="400"><tspan x="0" y="28" xml:space="preserve">id_cliente    FK</tspan><tspan x="0" y="46">fecha</tspan><tspan x="0" y="64" xml:space="preserve">id_producto???  FK</tspan></tspan></text>
        <text id="id_producto_PK_nombre_precio_stock_id_factura_FK" data-name="id_producto      PK
nombre
precio
stock
id_factura??  FK" transform="translate(7267 -1721)" fill="#12263f" font-size="10" font-family="Roboto-Bold, Roboto" font-weight="700"><tspan x="0" y="10" xml:space="preserve">id_producto      PK</tspan><tspan font-family="Roboto-Regular, Roboto" font-weight="400"><tspan x="0" y="28">nombre</tspan><tspan x="0" y="46">precio</tspan><tspan x="0" y="64">stock</tspan><tspan x="0" y="82" xml:space="preserve">id_factura??  FK</tspan></tspan></text>
        <text id="FACTURA" transform="translate(7062 -1741)" fill="#12263f" font-size="10" font-family="Roboto-Bold, Roboto" font-weight="700"><tspan x="0" y="10">FACTURA</tspan></text>
        <text id="PRODUCTO" transform="translate(7264 -1741)" fill="#12263f" font-size="10" font-family="Roboto-Bold, Roboto" font-weight="700"><tspan x="0" y="10">PRODUCTO</tspan></text>
        <g id="Grupo_1102806" data-name="Grupo 1102806">
          <line id="Línea_1689" data-name="Línea 1689" x2="82" transform="translate(6968.5 -1684.5)" fill="none" stroke="#fff" stroke-width="1.5"/>
          <line id="Línea_1690" data-name="Línea 1690" y2="10" transform="translate(6974.5 -1689.5)" fill="none" stroke="#fff" stroke-width="1.5"/>
          <line id="Línea_1691" data-name="Línea 1691" y2="10" transform="translate(7035.5 -1689.5)" fill="none" stroke="#fff" stroke-width="1.5"/>
          <line id="Línea_1692" data-name="Línea 1692" x1="15" y2="8" transform="translate(7035.5 -1692.5)" fill="none" stroke="#fff" stroke-width="1.5"/>
          <line id="Línea_1693" data-name="Línea 1693" x1="15" y1="8" transform="translate(7035.5 -1684.5)" fill="none" stroke="#fff" stroke-width="1.5"/>
        </g>
        <g id="Grupo_1102807" data-name="Grupo 1102807" transform="translate(0 94)">
          <line id="Línea_1689-2" data-name="Línea 1689" x2="82" transform="translate(7164 -1778.5)" fill="none" stroke="#fff" stroke-width="1.5"/>
          <line id="Línea_1690-2" data-name="Línea 1690" y2="10" transform="translate(7179 -1783.5)" fill="none" stroke="#fff" stroke-width="1.5"/>
          <line id="Línea_1691-2" data-name="Línea 1691" y2="10" transform="translate(7231 -1783.5)" fill="none" stroke="#fff" stroke-width="1.5"/>
          <line id="Línea_1692-2" data-name="Línea 1692" x1="15" y2="8" transform="translate(7231 -1786.5)" fill="none" stroke="#fff" stroke-width="1.5"/>
          <line id="Línea_1694" data-name="Línea 1694" x2="15" y2="8" transform="translate(7164 -1786.5)" fill="none" stroke="#fff" stroke-width="1.5"/>
          <line id="Línea_1693-2" data-name="Línea 1693" x1="15" y1="8" transform="translate(7231 -1778.5)" fill="none" stroke="#fff" stroke-width="1.5"/>
          <line id="Línea_1695" data-name="Línea 1695" y1="8" x2="15" transform="translate(7164 -1778.5)" fill="none" stroke="#fff" stroke-width="1.5"/>
        </g>
        <path id="Trazado_877278" data-name="Trazado 877278" d="M7050.5-1678" fill="none" stroke="#707070" stroke-width="1"/>
      </g>
    </g>
  </g>
</svg>
