<svg xmlns="http://www.w3.org/2000/svg" width="111.791" height="111.791" viewBox="0 0 111.791 111.791">
  <g id="Grupo_1204389" data-name="Grupo 1204389" transform="translate(-222.438 -784.333)">
    <g id="Grupo_1098580" data-name="Grupo 1098580" transform="translate(-196.562 -336.667)">
      <path id="Trazado_824488" data-name="Trazado 824488" d="M55.9,0A55.9,55.9,0,1,1,0,55.9,55.9,55.9,0,0,1,55.9,0Z" transform="translate(419 1121)" fill="#aaca79"/>
      <g id="archivo-pdf_1_" data-name="archivo-pdf (1)" transform="translate(441.467 1140.362)">
        <g id="Grupo_1096603" data-name="Grupo 1096603" transform="translate(1.07 1.07)">
          <g id="Grupo_1096601" data-name="Grupo 1096601">
            <path id="Trazado_842680" data-name="Trazado 842680" d="M81.236,66.744H41.875a4.281,4.281,0,0,1-4.281-4.281V11.781A4.281,4.281,0,0,1,41.875,7.5H81.236a4.281,4.281,0,0,1,4.281,4.281V62.462A4.281,4.281,0,0,1,81.236,66.744Z" transform="translate(-33.299 -7.5)" fill="#f7f6f7"/>
            <path id="Trazado_842681" data-name="Trazado 842681" d="M317.687,7.5h-4.281a4.281,4.281,0,0,1,4.281,4.281V62.462a4.281,4.281,0,0,1-4.281,4.281h4.281a4.281,4.281,0,0,0,4.281-4.281V11.781A4.281,4.281,0,0,0,317.687,7.5Z" transform="translate(-269.75 -7.5)" fill="#e2d8ec"/>
            <path id="Trazado_842682" data-name="Trazado 842682" d="M59.732,245.6H11.781A4.281,4.281,0,0,1,7.5,241.317V206.781a4.281,4.281,0,0,1,4.281-4.281H32.666a3.711,3.711,0,0,1,3.6,2.811L37,208.252a3.71,3.71,0,0,0,3.6,2.81H59.732a4.281,4.281,0,0,1,4.281,4.281v25.973A4.281,4.281,0,0,1,59.732,245.6Z" transform="translate(-7.5 -174.672)" fill="#f7e07f"/>
            <g id="Grupo_1096600" data-name="Grupo 1096600" transform="translate(20.884 27.828)">
              <path id="Trazado_842683" data-name="Trazado 842683" d="M157.442,205.311l.735,2.942a3.71,3.71,0,0,0,3.6,2.81h4.281a3.711,3.711,0,0,1-3.6-2.81l-.735-2.942a3.711,3.711,0,0,0-3.6-2.811h-4.281A3.711,3.711,0,0,1,157.442,205.311Z" transform="translate(-153.842 -202.5)" fill="#f0d16f"/>
              <path id="Trazado_842684" data-name="Trazado 842684" d="M347.781,262.5H343.5a4.281,4.281,0,0,1,4.281,4.281v25.973a4.281,4.281,0,0,1-4.281,4.281h4.281a4.281,4.281,0,0,0,4.281-4.281V266.781A4.281,4.281,0,0,0,347.781,262.5Z" transform="translate(-316.434 -253.937)" fill="#f0d16f"/>
            </g>
            <path id="Trazado_842685" data-name="Trazado 842685" d="M121.215,58.922H89.263a.714.714,0,0,1-.714-.714V53.214a.714.714,0,0,1,.714-.714h31.953a.714.714,0,0,1,.714.714v4.995A.714.714,0,0,1,121.215,58.922Z" transform="translate(-76.983 -46.078)" fill="#e2dfe3"/>
          </g>
          <g id="Grupo_1096602" data-name="Grupo 1096602" transform="translate(44.173 44.173)">
            <path id="Trazado_850923" data-name="Trazado 850923" d="M13.377,0A13.377,13.377,0,1,1,0,13.377,13.377,13.377,0,0,1,13.377,0Z" transform="translate(0 0)" fill="#79cd34"/>
            <path id="Trazado_842686" data-name="Trazado 842686" d="M397.908,317.033a13.485,13.485,0,0,0-2.141.171,13.378,13.378,0,0,1,0,26.411,13.377,13.377,0,1,0,2.141-26.582Z" transform="translate(-384.531 -317.033)" fill="#529918"/>
            <path id="Trazado_842687" data-name="Trazado 842687" d="M373.225,367.341v-8.764a.807.807,0,0,1,.807-.807h3.361a.807.807,0,0,1,.807.807v8.764a.807.807,0,0,0,.807.807h1.847a.692.692,0,0,1,.489,1.181l-5.06,5.06a.807.807,0,0,1-1.142,0l-5.06-5.06a.692.692,0,0,1,.489-1.181h1.847A.807.807,0,0,0,373.225,367.341Z" transform="translate(-362.336 -351.956)" fill="#fff"/>
          </g>
        </g>
        <path id="Trazado_842688" data-name="Trazado 842688" d="M46.017,19.266H12.637a1.07,1.07,0,0,0,0,2.141h33.38a1.07,1.07,0,0,0,0-2.141ZM45.3,6.422H38.222a1.07,1.07,0,1,0,0,2.141h6.724v4.281H13.707V8.563h19.52a1.07,1.07,0,0,0,0-2.141H13.35a1.786,1.786,0,0,0-1.784,1.784V13.2a1.786,1.786,0,0,0,1.784,1.784H45.3A1.786,1.786,0,0,0,47.087,13.2V8.206A1.786,1.786,0,0,0,45.3,6.422Zm.714,17.125H12.637a1.07,1.07,0,0,0,0,2.141h33.38a1.07,1.07,0,0,0,0-2.141Zm0,8.563H34.043a1.07,1.07,0,0,0,0,2.141H46.017a1.07,1.07,0,0,0,0-2.141Zm0-4.281H34.043a1.07,1.07,0,0,0,0,2.141H46.017a1.07,1.07,0,0,0,0-2.141ZM58.653,44.174V41.742A5.36,5.36,0,0,0,54.359,36.5V5.352A5.358,5.358,0,0,0,49.008,0H9.646A5.358,5.358,0,0,0,4.294,5.352V27.934A5.36,5.36,0,0,0,0,33.18V48.367a1.07,1.07,0,1,0,2.141,0V33.18a3.215,3.215,0,0,1,3.211-3.211H26.236a2.638,2.638,0,0,1,2.562,2l.735,2.943a4.772,4.772,0,0,0,4.637,3.621H53.3a3.215,3.215,0,0,1,3.211,3.211v2.585a14.444,14.444,0,0,0-5.452,26.6H5.352a3.214,3.214,0,0,1-3.211-3.211V53.362a1.07,1.07,0,1,0-2.141,0V67.715a5.358,5.358,0,0,0,5.352,5.352H53.3A5.283,5.283,0,0,0,55.3,72.68a14.447,14.447,0,1,0,3.357-28.507Zm-6.435-7.783H34.17a2.635,2.635,0,0,1-2.561-2l-.735-2.944a4.776,4.776,0,0,0-4.639-3.62H6.435V5.352A3.215,3.215,0,0,1,9.646,2.141H49.008a3.215,3.215,0,0,1,3.211,3.211Zm6.4,34.536A12.306,12.306,0,1,1,70.926,58.62,12.32,12.32,0,0,1,58.62,70.926Zm5.142-10.561H62.178v-8.5A1.88,1.88,0,0,0,60.3,49.987H56.939a1.88,1.88,0,0,0-1.877,1.877v8.5H53.478a1.762,1.762,0,0,0-1.246,3.008l5.06,5.06a1.88,1.88,0,0,0,2.655,0l5.06-5.06a1.762,1.762,0,0,0-1.246-3.008ZM58.62,66.734l-4.228-4.228h.933A1.88,1.88,0,0,0,57.2,60.628v-8.5h2.835v8.5a1.88,1.88,0,0,0,1.877,1.877h.933ZM41.037,51.086a1.07,1.07,0,0,0,0-2.141H37.188a1.07,1.07,0,0,0-1.07,1.07v9.5a1.07,1.07,0,0,0,2.141,0V55.744h2.473a1.07,1.07,0,1,0,0-2.141H38.258V51.086Zm-14.02,9.5h0c.079,0,1.954-.008,2.7-.021,2.737-.048,4.724-2.441,4.724-5.691,0-3.416-1.937-5.712-4.819-5.712H27a1.07,1.07,0,0,0-1.07,1.072v9.131a1.189,1.189,0,0,0,1.089,1.221Zm2.61-9.283c1.975,0,2.679,1.845,2.679,3.571,0,2.421-1.316,3.528-2.62,3.551-.366.006-1.029.012-1.6.015,0-1.1-.011-6-.013-7.137h1.557ZM18.687,59.512V56.421c.567,0,1.225-.006,1.593-.006a3.77,3.77,0,1,0,0-7.54H17.617a1.082,1.082,0,0,0-1.07,1.07v9.566a1.07,1.07,0,0,0,2.141,0Zm1.593-8.5a1.63,1.63,0,1,1,0,3.259c-.366,0-1.016,0-1.581.006,0-.583-.008-2.655-.009-3.264Z" transform="translate(0)"/>
      </g>
    </g>
  </g>
</svg>
