<svg xmlns="http://www.w3.org/2000/svg" width="399.994" height="409.961" viewBox="0 0 399.994 409.961">
  <g id="Grupo_1204377" data-name="Grupo 1204377" transform="translate(-600 -1419)">
    <text id="Métodos_para_recolectar_datos" data-name="Métodos para
recolectar datos" transform="translate(800.328 1633.064)" fill="#12263f" font-size="16" font-family="Roboto-Bold, Roboto" font-weight="700"><tspan x="-49.461" y="0">Métodos para</tspan><tspan x="-58.477" y="20">recolectar datos</tspan></text>
    <g id="Grupo_1204376" data-name="Grupo 1204376">
      <path id="Trazado_873737" data-name="Trazado 873737" d="M471.15,1826.731a92.3,92.3,0,0,1-16.482-72.212l-54.237-12.38a148.052,148.052,0,0,0,27.224,119.278Z" transform="translate(252.816 -144.5)" fill="#aaca79"/>
      <path id="Trazado_873738" data-name="Trazado 873738" d="M886.71,2765.759a92.3,92.3,0,0,1-66.735-32.136l-43.494,34.687a148.052,148.052,0,0,0,110.231,53.081Z" transform="translate(-91.978 -1046.339)" fill="#a6cdec"/>
      <path id="Trazado_873739" data-name="Trazado 873739" d="M2133.85,2733.564a92.3,92.3,0,0,1-66.733,32.141l0,55.632a148.052,148.052,0,0,0,110.227-53.089Z" transform="translate(-1265.92 -1046.285)" fill="#0a4666"/>
      <path id="Trazado_873740" data-name="Trazado 873740" d="M2866.231,1754.4a92.3,92.3,0,0,1-16.477,72.214l43.5,34.683a148.054,148.054,0,0,0,27.215-119.28Z" transform="translate(-1977.795 -144.39)" fill="#aaca79"/>
      <path id="Trazado_873741" data-name="Trazado 873741" d="M2505.237,664.581a92.3,92.3,0,0,1,46.187,57.905l54.236-12.385a148.055,148.055,0,0,0-76.291-95.646Z" transform="translate(-1664.428 881.223)" fill="#a6cdec"/>
      <path id="Trazado_873742" data-name="Trazado 873742" d="M1378.715,500.568a92.3,92.3,0,0,1,74.069-.009l24.132-50.126a148.054,148.054,0,0,0-122.346.015Z" transform="translate(-617.799 1042.441)" fill="#d3d3d3"/>
      <path id="Trazado_873743" data-name="Trazado 873743" d="M500.875,722.677a92.3,92.3,0,0,1,46.173-57.917L522.9,614.641a148.055,148.055,0,0,0-76.267,95.665Z" transform="translate(208.044 881.055)" fill="#0a4666"/>
      <path id="Trazado_873744" data-name="Trazado 873744" d="M0,1983.809A59.188,59.188,0,1,1,59.187,2043,59.187,59.187,0,0,1,0,1983.809" transform="translate(600 -324.78)" fill="#aaca79"/>
      <path id="Trazado_873745" data-name="Trazado 873745" d="M497.643,1924.625h0Zm-.038,0h0m-.037,0h0m-.037,0h0m-.037,0h0m-.037,0h0m-.037,0h0m-.037,0h0m-.036,0h0m-.037,0h0" transform="translate(161.953 -310.484)" fill="#43b2c7"/>
      <path id="Trazado_873746" data-name="Trazado 873746" d="M0,2422.265H0Zm0-.038v0m0-.037v0m0-.037v0m0-.037s0,0,0,.007,0,0,0-.007m0-.038s0,0,0,.008,0,0,0-.008m0-.037s0,.007,0,.011,0-.008,0-.011M0,2422v0m0-.037v0m0-.037v0" transform="translate(614.296 -762.828)" fill="#87c6ca"/>
      <path id="Trazado_873747" data-name="Trazado 873747" d="M44.891,1924.622A44.891,44.891,0,0,0,0,1969.513v.079c0,.011,0,.021,0,.031v.005c0,.011,0,.021,0,.031s0,.007,0,.01,0,.018,0,.027v.011c0,.008,0,.018,0,.026v.008c0,.009,0,.02,0,.03v.007c0,.01,0,.02,0,.03v0c0,.011,0,.021,0,.032v.075H0a44.73,44.73,0,0,0,13.154,31.324q-.279-.279-.553-.563.284.274.573.544A44.878,44.878,0,0,1,76.605,1937.8q-.269-.289-.544-.573.3.287.589.579a44.731,44.731,0,0,0-31.35-13.18h-.409" transform="translate(614.297 -310.483)" fill="#43b2c7"/>
      <path id="Trazado_873748" data-name="Trazado 873748" d="M492.651,2917.591h0m-.039,0h0m-.032,0h0m-.033,0h0m-.038,0h0m-.038,0h0m-.038,0h0m-.034,0h0m-.036,0h0" transform="translate(166.452 -1213.671)" fill="#13a1a7"/>
      <path id="Trazado_873749" data-name="Trazado 873749" d="M992.968,2417.291v0m0-.039v0m0-.032v0m0-.032a.032.032,0,0,1,0,0s0,0,0,0m0-.039v0m0-.038s0,0,0,.006,0,0,0-.006m0-.036v0m0-.035h0m0-.036h0" transform="translate(-288.89 -758.347)" fill="#087"/>
      <path id="Trazado_873750" data-name="Trazado 873750" d="M208.957,2070.351a44.878,44.878,0,0,1-63.429,63.429q.269.289.544.573c-.189-.183-.378-.368-.564-.554a44.735,44.735,0,0,0,31.361,13.156h.373a44.891,44.891,0,0,0,44.891-44.891c0-.025,0-.049,0-.074v-.01c0-.008,0-.017,0-.026v-.014c0-.008,0-.015,0-.024v-.009c0-.01,0-.019,0-.029s0,0,0,0,0-.022,0-.033v-.005c0-.011,0-.021,0-.032s0,0,0-.006,0-.02,0-.031v-.038h0c0-.011,0-.024,0-.036h0A44.735,44.735,0,0,0,209,2070.357q.266.267.528.538-.284-.274-.573-.544" transform="translate(481.945 -443.037)" fill="#087"/>
      <path id="Trazado_873751" data-name="Trazado 873751" d="M139.391,2127.471q.274.283.553.563t.564.554c-.183-.189-.364-.381-.544-.573s-.384-.361-.573-.544m63.458-63.458c.183.189.364.381.544.573s.384.361.573.544c-.174-.18-.351-.36-.528-.538q-.292-.293-.589-.579" transform="translate(487.509 -437.271)" fill="#008d89"/>
      <path id="Trazado_873752" data-name="Trazado 873752" d="M851.806,3051.255a58.53,58.53,0,1,1,58.529,58.53,58.53,58.53,0,0,1-58.529-58.53" transform="translate(-174.131 -1295.653)" fill="#a6cdec"/>
      <path id="Trazado_873753" data-name="Trazado 873753" d="M1349.449,2992.728h0Zm-.038,0h0m-.037,0h0m-.037,0h0m-.038,0h0m-.037,0h0m-.038,0h0m-.036,0h0m-.036,0h0m-.037,0h0" transform="translate(-612.837 -1282.015)" fill="#465c71"/>
      <path id="Trazado_873754" data-name="Trazado 873754" d="M851.809,3490.369h0Zm0-.038v0m0-.036v0m0-.037v0m0-.037v0m0-.037s0,0,0,.007,0,0,0-.007m0-.037v0m0-.037v0m0-.036v0m0-.037v0" transform="translate(-160.493 -1734.358)" fill="#242b32"/>
      <path id="Trazado_873755" data-name="Trazado 873755" d="M896.7,2992.725q-.363,0-.725.006a44.891,44.891,0,0,0-44.166,44.812v.189c0,.01,0,.02,0,.031s0,.007,0,.01,0,.018,0,.027v.011c0,.009,0,.018,0,.027v.008c0,.009,0,.02,0,.029v.007c0,.01,0,.021,0,.03v0c0,.011,0,.021,0,.032v.042c0,.011,0,.022,0,.033h0a44.73,44.73,0,0,0,13.155,31.325q-.279-.279-.554-.563.284.274.573.543a44.878,44.878,0,0,1,63.429-63.429q-.269-.289-.544-.573.3.287.589.578a44.731,44.731,0,0,0-31.35-13.18H896.7" transform="translate(-160.492 -1282.014)" fill="#465c71"/>
      <path id="Trazado_873756" data-name="Trazado 873756" d="M1844.774,3485.376v0m0-.039v0m0-.032v0m0-.032a.012.012,0,0,1,0,0v0m0-.039v0m0-.038v0m0-.038v0m0-.034a.027.027,0,0,0,0,0,.027.027,0,0,1,0,0m0-.036v0" transform="translate(-1063.679 -1729.857)" fill="#0e1010"/>
      <path id="Trazado_873757" data-name="Trazado 873757" d="M1060.767,3138.454a44.878,44.878,0,0,1-63.429,63.429q.269.289.544.573-.284-.275-.563-.554a44.73,44.73,0,0,0,31.214,13.154h.52a44.89,44.89,0,0,0,44.891-44.89v-.074s0-.006,0-.011v-.026s0-.009,0-.014v-.032c0-.01,0-.02,0-.029v0c0-.011,0-.021,0-.034v0c0-.011,0-.021,0-.032v-.007c0-.01,0-.02,0-.03s0-.005,0-.008,0-.02,0-.03v0c0-.011,0-.021,0-.033v0a44.736,44.736,0,0,0-13.13-31.335q.266.267.528.538-.284-.275-.573-.544" transform="translate(-292.848 -1414.566)" fill="#0e1010"/>
      <path id="Trazado_873758" data-name="Trazado 873758" d="M991.2,3195.574q.274.284.554.563t.563.554q-.274-.284-.544-.573-.289-.269-.573-.543m63.458-63.458c.183.189.364.381.544.573s.384.361.573.544q-.262-.271-.528-.538-.292-.292-.589-.579" transform="translate(-287.28 -1408.801)" fill="#13181d"/>
      <path id="Trazado_873759" data-name="Trazado 873759" d="M2217.977,3051.206a58.531,58.531,0,1,1,58.531,58.531,58.531,58.531,0,0,1-58.531-58.531" transform="translate(-1416.78 -1295.608)" fill="#0a4666"/>
      <path id="Trazado_873760" data-name="Trazado 873760" d="M2217.979,3037.974h0Zm0-.038v0m0-.037v0m0-.037v0m0-.038v0m0-.037v0m0-.037v0m0-.037s0,.007,0,.01,0-.007,0-.01m0-.036v0m0-.037v0m45.3-44.963h0m-.038,0h0m-.037,0h0m-.037,0h0m-.038,0h0m-.037,0h0m-.038,0h0m-.036,0h0m-.037,0h0m-.037,0h0" transform="translate(-1403.14 -1281.968)" fill="#ed6f39"/>
      <path id="Trazado_873761" data-name="Trazado 873761" d="M2262.867,2992.675q-.98,0-1.951.042a44.892,44.892,0,0,0-42.939,44.776v.147a.041.041,0,0,1,0,.006v.068s0,.007,0,.01v.072c0,.009,0,.02,0,.029v.042c0,.011,0,.021,0,.033v.075h0a44.741,44.741,0,0,0,13.565,31.729q-.489-.477-.963-.968.284.274.573.543a44.878,44.878,0,0,1,63.428-63.43c-.179-.192-.361-.383-.542-.572q.568.548,1.116,1.116h0a44.743,44.743,0,0,0-31.878-13.718h-.409" transform="translate(-1403.14 -1281.968)" fill="#ed6f39"/>
      <path id="Trazado_873762" data-name="Trazado 873762" d="M2710.628,3530.3h0Zm-.039,0h0m-.033,0h0m-.032,0h0m-.039,0h0m-.038,0h0m-.038,0h0m-.034,0h0m-.036,0h0m45.264-44.973v0m0-.04v0m0-.032v0m0-.032v0m0-.039s0,0,0,.005,0,0,0-.005m0-.038v0m0-.038v0m0-.034v0m0-.036v0" transform="translate(-1850.985 -1729.813)" fill="#e44120"/>
      <path id="Trazado_873763" data-name="Trazado 873763" d="M2427.126,3138.388a44.878,44.878,0,0,1-63.428,63.43q.27.289.544.573l-.153-.148a44.728,44.728,0,0,0,30.951,12.75h.373a44.891,44.891,0,0,0,44.891-44.89c0-.025,0-.049,0-.074v-.115c0-.011,0-.022,0-.033v-.043c0-.01,0-.02,0-.03v-.042c0-.011,0-.021,0-.033v0a44.725,44.725,0,0,0-12.6-30.8c-.189-.183-.381-.365-.573-.544" transform="translate(-1535.686 -1414.506)" fill="#db090f"/>
      <path id="Trazado_873764" data-name="Trazado 873764" d="M2357.367,3195.524q.475.491.963.968l.154.149c-.184-.19-.364-.381-.544-.574s-.383-.36-.572-.543m63.458-63.458c.182.188.363.38.542.572s.384.361.573.544q-.548-.567-1.115-1.115" transform="translate(-1529.927 -1408.756)" fill="#dd1b10"/>
      <path id="Trazado_873765" data-name="Trazado 873765" d="M3069.7,1983.455a58.947,58.947,0,1,1,58.947,58.948,58.947,58.947,0,0,1-58.947-58.948" transform="translate(-2191.914 -324.438)" fill="#aaca79"/>
      <path id="Trazado_873766" data-name="Trazado 873766" d="M3069.706,1969.806v0m0-.038s0,0,0,.007a.061.061,0,0,0,0-.007m0-.037v0m0-.037v0m0-.037s0,.006,0,.01,0-.007,0-.01m0-.037v0m0-.037v0m0-.037v0m0-.037v0m0-.037v0m45.3-44.963h0m-.038,0h0m-.037,0h0m-.037,0h0m-.037,0h0m-.037,0h0m-.037,0h0m-.037,0h0m-.037,0h0m-.037,0h0m-.074,0a44.891,44.891,0,0,0-44.891,44.89,44.891,44.891,0,0,1,44.891-44.89" transform="translate(-2177.858 -310.38)" fill="#93989d"/>
      <path id="Trazado_873767" data-name="Trazado 873767" d="M3114.595,1924.508a44.891,44.891,0,0,0-44.891,44.89v.117c0,.011,0,.02,0,.031v.01c0,.008,0,.018,0,.027v.074s0,.007,0,.01v.034c0,.01,0,.02,0,.03v.008c0,.009,0,.02,0,.029a.061.061,0,0,1,0,.007v.035a44.734,44.734,0,0,0,13.227,31.395q-.316-.315-.625-.635.284.274.573.544a44.878,44.878,0,0,1,63.429-63.429q-.27-.288-.544-.573.3.287.589.579a44.734,44.734,0,0,0-31.35-13.18h-.409" transform="translate(-2177.858 -310.38)" fill="#93989d"/>
      <path id="Trazado_873768" data-name="Trazado 873768" d="M3562.371,2462.135h0m-.04,0h0m-.032,0h0m-.033,0h0m-.038,0h0m-.038,0h0m-.036,0h0m-.034,0h0m-.037,0h0m45.262-44.973v0m0-.039v0m0-.033v0m0-.032v0m0-.039v0m0-.038v0m0-.038v0m0-.034v0m0-.036v0" transform="translate(-2625.718 -758.226)" fill="#6a6b6d"/>
      <path id="Trazado_873769" data-name="Trazado 873769" d="M3278.86,2070.236a44.879,44.879,0,0,1-63.429,63.429q.27.288.544.573-.248-.24-.492-.482a44.732,44.732,0,0,0,31.291,13.084h.372a44.89,44.89,0,0,0,44.891-44.89v-.189c0-.012,0-.022,0-.033v0c0-.011,0-.021,0-.032v-.007c0-.01,0-.02,0-.03v-.008c0-.01,0-.02,0-.03v0c0-.011,0-.022,0-.033v0a44.736,44.736,0,0,0-13.129-31.335q.266.267.528.538-.284-.275-.573-.544" transform="translate(-2310.408 -442.932)" fill="#343738"/>
      <path id="Trazado_873770" data-name="Trazado 873770" d="M3209.093,2127.355q.31.321.625.635.244.243.491.482-.274-.284-.544-.573-.289-.269-.573-.544m63.458-63.458q.274.284.544.573.288.269.573.544-.262-.271-.528-.538-.292-.293-.589-.579" transform="translate(-2304.643 -437.166)" fill="#434849"/>
      <path id="Trazado_873771" data-name="Trazado 873771" d="M2765.584,652.4a59.785,59.785,0,1,1,59.785,59.784,59.784,59.784,0,0,1-59.785-59.784" transform="translate(-1916.129 886.193)" fill="#a6cdec"/>
      <path id="Trazado_873772" data-name="Trazado 873772" d="M3263.228,592.618h0Zm-.038,0h0m-.037,0h0m-.037,0h0m-.037,0h0m-.037,0h0m-.037,0h0m-.037,0h0m-.037,0h0m-.037,0h0" transform="translate(-2353.58 901.088)" fill="#87c6ca"/>
      <path id="Trazado_873773" data-name="Trazado 873773" d="M2765.586,1090.259h0Zm0-.038v0m0-.037v0m0-.037v0m0-.037v0m0-.037v0m0-.037s0,.007,0,.011,0-.008,0-.011m0-.037v0m0-.036v0m0-.037v0" transform="translate(-1901.235 448.743)" fill="#43b2c7"/>
      <path id="Trazado_873774" data-name="Trazado 873774" d="M2810.475,592.616h-.109a44.891,44.891,0,0,0-44.782,44.891v.157c0,.009,0,.018,0,.027v.045c0,.009,0,.02,0,.029v.007c0,.01,0,.02,0,.03v0c0,.012,0,.021,0,.033v0c0,.011,0,.021,0,.032v.038h0a44.743,44.743,0,0,0,13.718,31.878q-.568-.549-1.117-1.117.283.273.572.543a44.878,44.878,0,0,1,63.43-63.428q-.269-.289-.543-.572.519.5,1.023,1.02a44.744,44.744,0,0,0-31.784-13.621h-.409" transform="translate(-1901.235 901.088)" fill="#43b2c7"/>
      <path id="Trazado_873775" data-name="Trazado 873775" d="M3758.554,1085.286v0m0-.039v0m0-.032v0m0-.033v0m0-.038v0m0-.038a.05.05,0,0,0,0,.006.05.05,0,0,1,0-.006m0-.036v0m0-.035v0m0-.036h0" transform="translate(-2804.423 453.225)" fill="#13a1a7"/>
      <path id="Trazado_873776" data-name="Trazado 873776" d="M2974.73,738.337a44.878,44.878,0,0,1-63.43,63.429q.27.289.545.574a44.879,44.879,0,0,0,76.062-32.288v-.074s0-.006,0-.01v-.1c0-.012,0-.022,0-.034v0c0-.011,0-.021,0-.032v-.006c0-.011,0-.02,0-.031a.034.034,0,0,0,0,0v-.07h0a44.72,44.72,0,0,0-12.7-30.9l.094.1q-.284-.275-.573-.544" transform="translate(-2033.776 768.542)" fill="#087"/>
      <path id="Trazado_873777" data-name="Trazado 873777" d="M2904.977,795.465q.548.567,1.116,1.116-.274-.284-.544-.573-.288-.269-.572-.543m63.458-63.458q.274.284.543.572.29.27.574.544l-.094-.1q-.5-.518-1.023-1.02" transform="translate(-2028.024 774.3)" fill="#008d89"/>
      <path id="Trazado_873778" data-name="Trazado 873778" d="M1534.641,58.364a58.368,58.368,0,1,1,58.369,58.368,58.369,58.369,0,0,1-58.369-58.368" transform="translate(-795.066 1426.647)" fill="#d3d3d3"/>
      <path id="Trazado_873779" data-name="Trazado 873779" d="M1534.644,45.295h0Zm0-.038v0m0-.037v0m0-.037v0m0-.038v0m0-.037v0m0-.037s0,.007,0,.011,0-.008,0-.011m0-.037v0m0-.037v0m0-.037v0M1579.941,0h0m-.038,0h0m-.037,0h0m-.037,0h0m-.037,0h0m-.037,0h0m-.037,0h0m-.036,0h0m-.036,0h0m-.037,0h0" transform="translate(-781.589 1440.126)" fill="#242b32"/>
      <path id="Trazado_873780" data-name="Trazado 873780" d="M1579.533,0h-.109a44.891,44.891,0,0,0-44.782,44.818V45c0,.011,0,.02,0,.031v.037s0,.008,0,.011v.034c0,.009,0,.02,0,.029v.007c0,.01,0,.02,0,.03v0c0,.012,0,.021,0,.033v.041c0,.012,0,.022,0,.034h0a44.733,44.733,0,0,0,13.129,31.3c-.177-.178-.354-.358-.528-.538q.284.274.573.544a44.878,44.878,0,0,1,63.429-63.429q-.269-.289-.544-.573.272.262.538.529A44.729,44.729,0,0,0,1579.942,0h-.409" transform="translate(-781.589 1440.127)" fill="#465c71"/>
      <path id="Trazado_873781" data-name="Trazado 873781" d="M2027.292,888.991h0m-.039,0h0m-.032,0h0m-.033,0h0m-.039,0h0m-.038,0h0m-.038,0h0m-.034,0h0m-.036,0h0m29.032-10.335a44.707,44.707,0,0,1-28.586,10.337,44.707,44.707,0,0,0,28.586-10.337" transform="translate(-1229.433 640.912)" fill="#0e1010"/>
      <path id="Trazado_873782" data-name="Trazado 873782" d="M1743.344,145.232q.292.291.578.588-.284-.274-.573-.544a44.878,44.878,0,0,1-63.429,63.429q.269.289.544.573-.3-.287-.589-.579a44.733,44.733,0,0,0,31.386,13.18h.446a44.879,44.879,0,0,0,31.636-76.65" transform="translate(-913.691 1308.021)" fill="#0e1010"/>
      <path id="Trazado_873783" data-name="Trazado 873783" d="M1674.032,202.844q.262.271.528.538.292.292.589.579-.274-.284-.544-.573-.288-.269-.573-.544m63.458-63.458q.274.284.544.573.289.269.573.544-.286-.3-.578-.588-.267-.267-.538-.529" transform="translate(-908.376 1313.339)" fill="#13181d"/>
      <path id="Trazado_873784" data-name="Trazado 873784" d="M303.847,652.131a59.207,59.207,0,1,1,59.207,59.207,59.207,59.207,0,0,1-59.207-59.207" transform="translate(323.606 886.491)" fill="#0a4666"/>
      <path id="Trazado_873785" data-name="Trazado 873785" d="M303.849,638.222h0Zm0-.038s0,0,0,0,0,0,0,0m0-.037v0m0-.037s0,0,0,0,0,0,0,0m0-.037v0m0-.037v0m0-.037v0m0-.037s0,.007,0,.01,0-.007,0-.01m0-.036v0m0-.037v0m45.3-44.963h0m-.038,0h0m-.037,0h0m-.037,0h0m-.038,0h0m-.037,0h0m-.037,0h0m-.037,0h0m-.037,0h0m-.037,0h0" transform="translate(337.922 900.808)" fill="#e44120"/>
      <path id="Trazado_873786" data-name="Trazado 873786" d="M348.738,592.923a44.891,44.891,0,0,0-44.891,44.891v.08c0,.011,0,.021,0,.031v.005c0,.011,0,.02,0,.031s0,.007,0,.01,0,.018,0,.027v.011c0,.008,0,.018,0,.026v.008c0,.009,0,.02,0,.029v.007c0,.01,0,.02,0,.03s0,0,0,0,0,.021,0,.033v0c0,.01,0,.022,0,.032s0,0,0,0,0,.022,0,.034h0a44.729,44.729,0,0,0,13.13,31.3q-.267-.267-.529-.538.284.274.573.544a44.878,44.878,0,0,1,63.43-63.429q-.27-.289-.544-.574l.048.046a44.721,44.721,0,0,0-30.81-12.647h-.409" transform="translate(337.922 900.809)" fill="#ed6f39"/>
      <path id="Trazado_873787" data-name="Trazado 873787" d="M796.5,1130.566h0m-.04,0h0m-.032,0h0m-.033,0h0m-.038,0h0m-.038,0h0m-.038,0h0m-.034,0h0m-.036,0h0m45.264-44.973v0m0-.04v0m0-.032v0m0-.033v0s0,0,0,0m0-.038v0m0-.038v0m0-.036v0m0-.034v0m0-.036h0" transform="translate(-109.922 452.946)" fill="#db090f"/>
      <path id="Trazado_873788" data-name="Trazado 873788" d="M512.063,732.824q.543.526,1.069,1.071-.284-.274-.572-.543a44.878,44.878,0,0,1-63.43,63.428q.269.289.544.573-.3-.286-.588-.578a44.736,44.736,0,0,0,31.385,13.18h.373a44.891,44.891,0,0,0,44.891-44.891c0-.025,0-.049,0-.074v-.036s0-.009,0-.013,0-.015,0-.024v-.008c0-.01,0-.019,0-.029v0c0-.012,0-.022,0-.034v0c0-.011,0-.021,0-.032v-.042c0-.011,0-.022,0-.033h0c0-.012,0-.024,0-.036h0a44.745,44.745,0,0,0-13.671-31.87" transform="translate(205.815 773.557)" fill="#db090f"/>
      <path id="Trazado_873789" data-name="Trazado 873789" d="M443.238,795.771q.262.272.529.539.291.292.588.578-.274-.284-.544-.573-.289-.269-.573-.544M506.7,732.313q.275.285.544.574.289.269.572.543-.525-.544-1.069-1.071l-.048-.046" transform="translate(211.135 774.021)" fill="#dd1b10"/>
      <path id="Trazado_873790" data-name="Trazado 873790" d="M191.487,2051.55a45.65,45.65,0,1,1-64.559,0,45.649,45.649,0,0,1,64.559,0" transform="translate(499.98 -424.802)" fill="#fff"/>
      <path id="Trazado_873791" data-name="Trazado 873791" d="M1005.419,3106.537a45.143,45.143,0,1,1-39.8,49.915,45.144,45.144,0,0,1,39.8-49.915" transform="translate(-274.271 -1395.794)" fill="#fff"/>
      <path id="Trazado_873792" data-name="Trazado 873792" d="M2338.408,3127.316a45.144,45.144,0,1,1,14.21,62.242,45.143,45.143,0,0,1-14.21-62.242" transform="translate(-1516.906 -1395.735)" fill="#fff"/>
      <path id="Trazado_873793" data-name="Trazado 873793" d="M3185.72,2098.456a45.465,45.465,0,1,1,57.932,27.893,45.465,45.465,0,0,1-57.932-27.893" transform="translate(-2291.895 -424.419)" fill="#fff"/>
      <path id="Trazado_873794" data-name="Trazado 873794" d="M2909.937,795.717a46.11,46.11,0,1,1,58.75-28.3,46.111,46.111,0,0,1-58.75,28.3" transform="translate(-2015.922 786.4)" fill="#fff"/>
      <path id="Trazado_873795" data-name="Trazado 873795" d="M1717.129,196.642a45.018,45.018,0,1,1,14.159-62.071,45.018,45.018,0,0,1-14.159,62.071" transform="translate(-895.23 1326.484)" fill="#fff"/>
      <path id="Trazado_873796" data-name="Trazado 873796" d="M508.417,757.222a45.665,45.665,0,1,1-40.273-50.485,45.665,45.665,0,0,1,40.273,50.485" transform="translate(223.622 786.506)" fill="#fff"/>
      <path id="Trazado_1261803" data-name="Trazado 1261803" d="M0,0H399.994V409.961H0Z" transform="translate(600 1419)" fill="none"/>
    </g>
    <text id="Cuestionarios" transform="translate(937.328 1663.064)" fill="#12263f" font-size="14" font-family="Roboto-Bold, Roboto" font-weight="700"><tspan x="-43.699" y="0">Cuestionarios</tspan></text>
    <text id="Entrevistas_telefónicas" data-name="Entrevistas
telefónicas" transform="translate(909.328 1536.064)" fill="#12263f" font-size="14" font-family="Roboto-Bold, Roboto" font-weight="700"><tspan x="-35.226" y="0">Entrevistas</tspan><tspan x="-35.034" y="15">telefónicas</tspan></text>
    <text id="Entrevistas_personales" data-name="Entrevistas
personales" transform="translate(797.328 1484.064)" fill="#12263f" font-size="14" font-family="Roboto-Bold, Roboto" font-weight="700"><tspan x="-35.226" y="0">Entrevistas</tspan><tspan x="-34.747" y="15">personales</tspan></text>
    <text id="Paneles_online" data-name="Paneles
online" transform="translate(682.328 1535.064)" fill="#12263f" font-size="14" font-family="Roboto-Bold, Roboto" font-weight="700"><tspan x="-25.173" y="0">Paneles</tspan><tspan font-family="Roboto-BoldItalic, Roboto" font-style="italic"><tspan x="-18.925" y="15">online</tspan></tspan></text>
    <text id="Encuestas_online" data-name="Encuestas
online" transform="translate(735.328 1756.064)" fill="#12263f" font-size="14" font-family="Roboto-Bold, Roboto" font-weight="700"><tspan x="-32.525" y="0">Encuestas</tspan><tspan font-family="Roboto-BoldItalic, Roboto" font-style="italic"><tspan x="-18.925" y="15">online</tspan></tspan></text>
    <text id="Observación" transform="translate(859.328 1763.564)" fill="#12263f" font-size="14" font-family="Roboto-Bold, Roboto" font-weight="700"><tspan x="-39.396" y="0">Observación</tspan></text>
    <text id="Focus_group" data-name="Focus
group" transform="translate(657.328 1656.064)" fill="#12263f" font-size="14" font-family="Roboto-Bold, Roboto" font-weight="700"><tspan x="-18.888" y="0">Focus</tspan><tspan font-family="Roboto-BoldItalic, Roboto" font-style="italic"><tspan x="-17.862" y="15">group</tspan></tspan></text>
  </g>
</svg>
